<svg width="50" height="50" viewBox="0 0 50 50" fill="none" xmlns="http://www.w3.org/2000/svg">
<path d="M25 40.7325C23.4004 40.7325 21.7891 40.3321 20.4219 39.2559L0 24.502V45.3126C0 47.9005 2.09961 50.0001 4.6875 50.0001H45.3125C47.9004 50.0001 50 47.9005 50 45.4005V24.502L29.5801 39.2579C28.2129 40.2344 26.6016 40.7325 25 40.7325ZM48.2031 15.918C47.3438 15.2344 46.5234 14.5997 45.3125 13.6817V9.3731C45.3125 6.78521 43.2129 4.6856 40.625 4.6856L33.0566 4.68575C32.7515 4.46603 32.4829 4.27071 32.1655 4.05099C30.5273 2.84478 27.2754 -0.0363973 25 0.000223796C22.7344 -0.0363973 19.4727 2.84478 17.832 4.05278C17.5146 4.27251 17.2461 4.46782 16.9409 4.68755H9.375C6.78711 4.68755 4.6875 6.78716 4.6875 9.37505V13.6836C3.47949 14.5997 2.66113 15.2344 1.79492 15.918C0.65918 16.7969 0 18.1641 0 19.6094V20.6465L9.375 27.421V9.37505H40.625V27.4122L50 20.6378V19.6094C50 18.1641 49.3457 16.7969 48.2031 15.918ZM17.1875 24.9122H32.8125C33.6754 24.9122 34.375 24.2126 34.375 23.4376C34.375 22.5745 33.6754 21.8751 32.8125 21.8751H17.1875C16.3246 21.8751 15.625 22.5745 15.625 23.4376C15.625 24.2969 16.3281 24.9122 17.1875 24.9122ZM17.1875 18.6622H32.8125C33.6754 18.6622 34.375 17.9626 34.375 17.0997C34.375 16.2366 33.6754 15.6251 32.8125 15.6251H17.1875C16.3246 15.6251 15.625 16.3245 15.625 17.0997C15.625 18.0469 16.3281 18.6622 17.1875 18.6622Z" fill="black"/>
</svg>
