<svg width="81" height="108" viewBox="0 0 81 108" fill="none" xmlns="http://www.w3.org/2000/svg">
<path d="M6.74827 2.45635C5.87948 3.05134 5.55628 3.48367 5.11149 4.64582L4.5459 6.07873V54.1359V102.193L5.11149 103.625C5.55628 104.787 5.87948 105.219 6.74827 105.814L7.81945 106.571H29.0151C44.7557 106.571 50.3324 106.49 50.7564 106.247C51.0596 106.085 53.9291 102.463 57.1411 98.2187L62.9402 90.4881V66.5676V42.6471L61.1218 45.0795L59.3035 47.5119V68.054V88.5961L54.2723 95.1646L49.2412 101.705L28.7527 101.652L8.28424 101.57V54.1359V6.70046H33.7439H59.2035L59.2643 20.2151L59.3043 33.703L61.1226 31.2973L62.941 28.8649V17.7827C62.941 10.89 62.8602 6.32271 62.7186 5.67421C62.4554 4.3494 61.4458 2.83624 60.4146 2.21449C59.6467 1.72758 58.3131 1.70084 33.7231 1.70084H7.81945L6.74827 2.45635Z" fill="black"/>
<path d="M19.5594 13.3224C18.509 13.6466 17.0947 14.9169 16.4475 16.1058C13.5779 21.404 16.5691 28.6477 21.3978 28.134C22.873 27.9724 23.9842 27.2693 24.9745 25.8364C26.2073 24.1071 26.4697 23.2146 26.4697 20.6196C26.4697 18.5928 26.4089 18.1604 25.9241 17.0518C24.5706 13.9709 22.065 12.5112 19.5594 13.3224ZM22.1258 17.7816C22.8738 18.2953 23.3378 19.4574 23.3378 20.809C23.3378 24.1061 19.8418 25.0253 18.7714 22.0257C17.7811 19.2145 20.0442 16.3498 22.1258 17.7816Z" fill="black"/>
<path d="M73.2466 18.8903C73.085 18.9984 66.6195 27.5123 58.8804 37.838L44.8366 56.5952L41.6039 51.2434L38.3911 45.8917L37.5023 45.8104C36.8151 45.7291 36.5119 45.8639 36.1487 46.3241C35.5631 47.0539 35.5023 48.5671 36.0071 49.5409C37.0575 51.5677 43.5638 62.1909 43.847 62.3524C44.0286 62.4338 44.4734 62.514 44.8166 62.514C45.403 62.514 46.8974 60.5953 60.5772 42.2961C74.2362 24.0258 75.6713 22.0257 75.6713 21.2413C75.6713 19.7014 74.297 18.3766 73.2466 18.8903Z" fill="black"/>
<path d="M35.603 21.6201C35.5222 21.7015 35.4614 22.6742 35.4614 23.7829V25.7562H45.5645H55.6675V23.5935V21.4307H45.7053C40.2094 21.4307 35.663 21.5121 35.603 21.6201Z" fill="black"/>
<path d="M16.8112 29.6472C14.8104 30.7558 13.6793 32.2155 12.7905 34.8373C12.4065 35.9727 12.3257 36.7293 12.2649 40.2703L12.1841 44.4053H20.8927H29.6014V40.4052C29.5814 37.351 29.5006 36.1343 29.2374 35.1615C28.4894 32.4049 26.8735 30.3502 24.7311 29.4043L23.7407 28.9452L22.9119 29.8098C22.3863 30.377 21.8007 30.7291 21.2551 30.8104C20.528 30.9185 20.2648 30.8104 19.356 29.9725C18.7704 29.4321 18.2248 28.9998 18.144 28.9998C18.0432 28.9987 17.4576 29.2962 16.8112 29.6472ZM18.6096 34.4585C19.9832 35.2696 22.0647 35.2696 23.4391 34.4585C24.4087 33.8635 24.4495 33.8635 24.9343 34.3504C25.2175 34.6211 25.6015 35.1348 25.8031 35.5125C26.1871 36.2156 26.6719 39.0803 26.4903 39.7021C26.4095 40.0263 25.4191 40.0809 20.9135 40.0809H15.4576V38.7561C15.4576 38.0263 15.5584 37.0803 15.68 36.6479C15.8824 35.9181 17.216 33.8645 17.4984 33.8645C17.5584 33.8645 18.064 34.1342 18.6096 34.4585Z" fill="black"/>
<path d="M11.8203 72.5154V74.6782L33.7032 74.6236L55.5661 74.5422L55.6269 72.4341L55.6877 70.3527H33.744H11.8203V72.5154Z" fill="black"/>
<path d="M11.8203 87.1119V89.2746H33.744H55.6677V87.1119V84.9493H33.744H11.8203V87.1119Z" fill="black"/>
</svg>
