<svg width="145" height="189" viewBox="0 0 145 189" fill="none" xmlns="http://www.w3.org/2000/svg">
<g clip-path="url(#clip0_3_22)">
<path d="M0.625 98.6951L8.62488 98.7045C10.8436 98.7045 12.6248 95.3623 12.6248 91.2132V38.9145H0.625V98.6951ZM6.62491 83.7733C7.71864 83.7733 8.62488 85.4381 8.62488 87.5131C8.62488 89.5577 7.71864 91.2529 6.62491 91.2529C5.53118 91.2529 4.62494 89.5502 4.62494 87.5155C4.62494 85.4339 5.53118 83.7733 6.62491 83.7733ZM44.2243 23.8758C43.2317 23.8758 42.2669 24.5702 41.5344 25.8236L29.2371 46.8665C29.2246 46.9133 29.2246 46.9601 29.1996 46.9601C27.1246 50.6087 27.1621 56.4324 28.9371 60.0575C30.5308 63.1214 33.8595 64.1786 35.9532 60.7007C35.9745 60.6656 35.987 60.6656 35.9995 60.6423L45.9843 43.5454C46.7968 42.1722 48.078 42.26 48.8118 43.7793C49.5618 45.2986 49.4993 47.6664 48.6868 49.0697L45.4218 54.6525L63.624 82.2765C63.9834 82.8602 64.3115 83.4449 64.6084 84.0872V38.6338C59.486 29.054 52.5486 23.6934 45.3087 23.6934L44.2243 23.8758ZM42.4494 59.7535L38.6994 66.1829C34.9807 72.5235 29.2933 71.9108 25.9746 65.1606C22.6247 58.3034 22.8872 47.6617 26.5371 41.3936L36.7619 23.8758H35.937C28.7121 23.8758 21.7622 29.2738 16.6498 38.8209L16.6248 91.1874L18.906 91.1961L30.2183 110.332C33.6557 115.564 38.6869 114.57 41.4681 108.17L43.7331 111.734C45.7181 114.564 48.6555 114.19 50.2805 110.478L54.2029 101.45L54.8747 102.502C56.5934 105.075 59.1096 104.608 60.4996 101.392L61.6918 98.6366C63.0818 95.4207 62.8213 90.736 61.1051 88.1282L42.4494 59.7535ZM68.624 38.9379V91.2342C68.624 95.3552 70.4052 98.7302 72.5114 98.7302L80.6238 98.7185V38.8677L68.624 38.9379ZM74.6239 91.2342C73.5301 91.2342 72.6239 89.5395 72.6239 87.4944C72.6239 85.4187 73.5301 83.7546 74.6239 83.7546C75.7176 83.7546 76.6238 85.4339 76.6238 87.5155C76.6238 89.5502 75.7239 91.2342 74.6239 91.2342Z" fill="black"/>
</g>
<defs>
<clipPath id="clip0_3_22">
<rect width="143.513" height="188.342" fill="white" transform="translate(0.625 0.4375)"/>
</clipPath>
</defs>
</svg>
