<svg width="94" height="124" viewBox="0 0 94 124" fill="none" xmlns="http://www.w3.org/2000/svg">
<g clip-path="url(#clip0_3_17)">
<path d="M27.6855 0.316662C19.0357 1.52114 11.2466 7.48776 6.44451 16.5537C1.55019 25.8096 0.379813 37.3609 3.2431 48.0133C6.47524 60.0816 14.8791 69.3189 24.946 71.9002C28.409 72.7992 33.3806 72.7992 36.6899 71.9384C41.0767 70.7907 45.4477 68.324 48.7421 65.111L49.7422 64.1357L51.6046 66.4497L53.467 68.7637L52.4976 69.9682L51.5431 71.154L62.3634 84.5992L73.1687 98.0248L76.062 94.429L78.9402 90.8527L68.1207 77.4085L57.3154 63.9829L56.346 65.1678L55.3916 66.3723L53.5442 64.077L51.6968 61.7816L52.3738 60.9208C55.8061 56.4838 58.5457 49.8288 59.5309 43.4597C60.7927 35.3701 59.8997 27.3568 56.945 20.0506C51.9577 7.69633 41.7529 -0.0299873 30.6552 0.122776C29.6558 0.144314 28.3168 0.220699 27.6855 0.316662ZM33.2269 2.80299C42.6774 3.89289 50.6975 10.5871 54.9912 20.9525C58.3463 29.0803 58.9319 38.0885 56.6684 46.8665C54.3599 55.7974 48.8185 63.4287 41.9074 67.1959C30.8404 73.2585 17.8803 69.5676 10.1992 58.2073C5.56731 51.3408 3.32034 42.8496 3.8279 34.052C4.18177 27.9708 5.67529 22.6153 8.46134 17.3939C10.0471 14.4297 13.2634 10.452 15.6806 8.46309C21.0825 4.02706 27.1007 2.09498 33.2269 2.80299Z" fill="black"/>
<path d="M28.7173 10.2423C25.3772 10.9885 22.1451 13.3407 20.2204 16.4009C19.0658 18.2174 18.4195 19.7284 17.819 21.9092C17.3729 23.5347 17.3114 24.0126 17.2492 26.4422C17.1877 28.7757 17.2334 29.4259 17.5108 30.9751C17.6952 31.9505 18.0806 33.3655 18.373 34.1303C19.0351 35.8322 30.7641 61.1156 30.902 61.1156C30.9942 61.097 41.2613 39.0648 42.7233 35.6991C44.5084 31.6449 45.0167 27.8386 44.324 23.6885C43.2773 17.3968 39.3524 12.2332 34.3651 10.6076C32.9961 10.166 29.9334 9.95542 28.7173 10.2423ZM32.9961 16.6486C34.5511 17.1461 35.8287 18.0637 36.9982 19.5169C38.7219 21.6585 39.5376 24.1262 39.5376 27.1668C39.5376 32.8083 36.136 37.3795 31.5333 37.8955C28.5321 38.2588 25.084 36.0976 23.5448 32.9229C21.9133 29.5376 21.7439 25.7704 23.0987 22.3273C24.0988 19.745 26.531 17.3165 28.8095 16.6281C29.9334 16.3049 31.9037 16.3049 32.9961 16.6486Z" fill="black"/>
</g>
<defs>
<clipPath id="clip0_3_17">
<rect width="92.3594" height="123.065" fill="white" transform="translate(0.78125 0.120605)"/>
</clipPath>
</defs>
</svg>
