<svg width="15" height="15" viewBox="0 0 15 15" fill="none" xmlns="http://www.w3.org/2000/svg">
<path d="M9.92705 4.40331L13.6692 5.0244C13.9791 5.07421 14.2395 5.3203 14.3385 5.65722C14.4375 5.99706 14.3567 6.3662 14.1328 6.61816L11.4192 9.6123L12.0599 13.9072C12.1119 14.2588 11.9843 14.6162 11.7239 14.8242C11.4661 15.0322 11.125 15.0586 10.8463 14.8916L7.50257 12.8848L4.16142 14.8916C3.88017 15.0586 3.53903 15.0322 3.28122 14.8242C3.0234 14.6162 2.8932 14.2588 2.94788 13.9072L3.58851 9.6123L0.874448 6.61816C0.650229 6.3662 0.570542 5.99706 0.668979 5.65722C0.767156 5.3203 1.02679 5.07421 1.33903 5.0244L5.07809 4.40331L6.75517 0.526451C6.89319 0.203717 7.18486 -0.00115967 7.50257 -0.00115967C7.82288 -0.00115967 8.11455 0.203717 8.25257 0.526451L9.92705 4.40331Z" fill="black"/>
</svg>