<svg width="25" height="20" viewBox="0 0 25 20" fill="none" xmlns="http://www.w3.org/2000/svg">
<path d="M9.20122 1.25V2.5H15.9872V1.25C15.9872 0.559766 16.7453 0 17.6837 0C18.6221 0 19.3802 0.559766 19.3802 1.25V2.5H21.9249C23.3298 2.5 24.4697 3.33945 24.4697 4.375V6.25H0.71875V4.375C0.71875 3.33945 1.85805 2.5 3.26349 2.5H5.80823V1.25C5.80823 0.559766 6.56635 0 7.50473 0C8.4431 0 9.20122 0.559766 9.20122 1.25ZM0.71875 7.5H24.4697V18.125C24.4697 19.1602 23.3298 20 21.9249 20H3.26349C1.85805 20 0.71875 19.1602 0.71875 18.125V7.5ZM4.11174 11.875C4.11174 12.2188 4.49133 12.5 4.95998 12.5H6.65648C7.12301 12.5 7.50473 12.2188 7.50473 11.875V10.625C7.50473 10.2812 7.12301 10 6.65648 10H4.95998C4.49133 10 4.11174 10.2812 4.11174 10.625V11.875ZM10.8977 11.875C10.8977 12.2188 11.2794 12.5 11.746 12.5H13.4425C13.909 12.5 14.2907 12.2188 14.2907 11.875V10.625C14.2907 10.2812 13.909 10 13.4425 10H11.746C11.2794 10 10.8977 10.2812 10.8977 10.625V11.875ZM18.5319 10C18.0654 10 17.6837 10.2812 17.6837 10.625V11.875C17.6837 12.2188 18.0654 12.5 18.5319 12.5H20.2284C20.695 12.5 21.0767 12.2188 21.0767 11.875V10.625C21.0767 10.2812 20.695 10 20.2284 10H18.5319ZM4.11174 16.875C4.11174 17.2188 4.49133 17.5 4.95998 17.5H6.65648C7.12301 17.5 7.50473 17.2188 7.50473 16.875V15.625C7.50473 15.2812 7.12301 15 6.65648 15H4.95998C4.49133 15 4.11174 15.2812 4.11174 15.625V16.875ZM11.746 15C11.2794 15 10.8977 15.2812 10.8977 15.625V16.875C10.8977 17.2188 11.2794 17.5 11.746 17.5H13.4425C13.909 17.5 14.2907 17.2188 14.2907 16.875V15.625C14.2907 15.2812 13.909 15 13.4425 15H11.746ZM17.6837 16.875C17.6837 17.2188 18.0654 17.5 18.5319 17.5H20.2284C20.695 17.5 21.0767 17.2188 21.0767 16.875V15.625C21.0767 15.2812 20.695 15 20.2284 15H18.5319C18.0654 15 17.6837 15.2812 17.6837 15.625V16.875Z" fill="black"/>
</svg>
